#!OML:ASF E:\motion texture\Top Level 1\Subject 1\Session 1\male.ASF
:FULLY-SPECIFIED
:DEGREES
111
root 38.6412 17.1589 5.15159 66.3058 -84.5629 -55.6412
lowerback 2.1025 1.62259 2.65358
upperback -1.20888 2.26982 3.1387
thorax -2.44567 1.09451 1.64521
lowerneck -16.4069 0.620161 -6.3762
upperneck 6.95388 1.89201 2.53033
head 4.6488 0.909996 1.97407
rclavicle 1.03368e-014 5.48646e-014
rhumerus -8.2446 30.494 -77.4639
rradius 74.8539
rwrist 14.5812
rhand -23.3266 -23.1098
rfingers 7.12502
rthumb 3.1277 -53.0666
lclavicle 1.03368e-014 5.48646e-014
lhumerus -15.6942 -15.6124 97.2382
lradius 64.7479
lwrist -12.9208
lhand -17.4576 22.9001
lfingers 7.12502
lthumb 8.79379 52.6969
rfemur -22.6464 -3.84544 19.0696
rtibia 47.5495
rfoot -11.8019 -8.70464
rtoes -11.2298
lfemur -41.292 -0.812379 -12.4995
ltibia 37.4947
lfoot -2.64975 -7.84106
ltoes 2.1057
112
root 38.5289 17.1477 5.17507 62.2793 -84.2686 -51.7781
lowerback 2.40613 1.54496 2.8305
upperback -1.13507 2.18368 3.26579
thorax -2.53831 1.04761 1.67362
lowerneck -16.3572 0.659888 -6.33372
upperneck 6.80717 1.95674 2.28859
head 4.59512 0.927923 1.89467
rclavicle -2.13694e-014 -2.94201e-014
rhumerus -7.84257 30.7061 -77.1411
rradius 74.8117
rwrist 14.4906
rhand -23.5817 -23.1967
rfingers 7.12502
rthumb 2.88131 -53.1569
lclavicle -2.13694e-014 -2.94201e-014
lhumerus -15.1639 -15.9804 97.2209
lradius 64.7595
lwrist -12.7733
lhand -17.4489 22.9318
lfingers 7.12502
lthumb 8.80221 52.7282
rfemur -23.3809 -3.95531 18.5664
rtibia 47.8279
rfoot -11.7853 -8.61421
rtoes -11.5053
lfemur -41.4632 -0.323145 -12.8096
ltibia 38.5475
lfoot -2.86329 -8.48746
ltoes 1.97214
113
root 38.4174 17.1351 5.19779 58.5991 -83.9269 -48.2751
lowerback 2.71821 1.46567 3.02006
upperback -1.05605 2.09708 3.39659
thorax -2.63018 1.0001 1.69954
lowerneck -16.3036 0.696069 -6.293
upperneck 6.65562 2.01609 2.04651
head 4.5398 0.943418 1.81503
rclavicle -5.96354e-015 -1.74931e-014
rhumerus -7.4327 30.9194 -76.8285
rradius 74.7328
rwrist 14.4032
rhand -23.8435 -23.2883
rfingers 7.12502
rthumb 2.62852 -53.2519
lclavicle -5.96354e-015 -1.74931e-014
lhumerus -14.6275 -16.3346 97.1941
lradius 64.752
lwrist -12.6224
lhand -17.428 22.969
lfingers 7.12502
lthumb 8.82235 52.7645
rfemur -24.0429 -4.06235 18.074
rtibia 48.0102
rfoot -11.8217 -8.5307
rtoes -11.7756
lfemur -41.653 0.185331 -13.08
ltibia 39.6094
lfoot -3.09412 -9.10157
ltoes 1.78055
114
root 38.3066 17.1208 5.21975 55.2609 -83.5413 -45.1283
lowerback 3.03866 1.38445 3.21961
upperback -0.971866 2.00971 3.53041
thorax -2.72136 0.951879 1.72377
lowerneck -16.2474 0.728322 -6.25569
upperneck 6.50113 2.06972 1.80669
head 4.48357 0.956432 1.73623
rclavicle 8.94531e-015 3.33958e-014
rhumerus -7.01701 31.1347 -76.5278
rradius 74.6215
rwrist 14.3164
rhand -24.1093 -23.3862
rfingers 7.12502
rthumb 2.37175 -53.3527
lclavicle 8.94531e-015 3.33958e-014
lhumerus -14.0855 -16.675 97.1589
lradius 64.7267
lwrist -12.4653
lhand -17.393 23.016
lfingers 7.12502
lthumb 8.85616 52.8101
rfemur -24.6262 -4.16814 17.5937
rtibia 48.0995
rfoot -11.9078 -8.46035
rtoes -12.059
lfemur -41.8615 0.707005 -13.3094
ltibia 40.6781
lfoot -3.34778 -9.67196
ltoes 1.52176
115
root 38.1963 17.1048 5.24103 52.2712 -83.1142 -42.3429
lowerback 3.36403 1.30172 3.43056
upperback -0.882615 1.92209 3.66658
thorax -2.80997 0.903197 1.74496
lowerneck -16.1904 0.75492 -6.22315
upperneck 6.34669 2.11546 1.57206
head 4.42765 0.966031 1.65929
rclavicle 2.79292e-014 2.94201e-014
rhumerus -6.59735 31.3509 -76.2415
rradius 74.479
rwrist 14.2307
rhand -24.3776 -23.4878
rfingers 7.12502
rthumb 2.11269 -53.4571
lclavicle 2.79292e-014 2.94201e-014
lhumerus -13.5383 -17.0015 97.1163
lradius 64.684
lwrist -12.2988
lhand -17.3442 23.0725
lfingers 7.12502
lthumb 8.90323 52.8647
rfemur -25.127 -4.27293 17.1298
rtibia 48.1013
rfoot -12.0423 -8.40763
rtoes -12.356
lfemur -42.0902 1.23842 -13.4942
ltibia 41.753
lfoot -3.62818 -10.1852
ltoes 1.1657
116
root 38.0867 17.0872 5.26164 49.6113 -82.6482 -39.9004
lowerback 3.69564 1.21712 3.65339
upperback -0.789715 1.83403 3.80394
thorax -2.89816 0.853913 1.76165
lowerneck -16.1305 0.775159 -6.19586
upperneck 6.19168 2.15223 1.34399
head 4.37151 0.971769 1.5846
rclavicle -1.49089e-014 -7.23576e-014
rhumerus -6.17308 31.5693 -75.9728
rradius 74.3083
rwrist 14.1435
rhand -24.6479 -23.5879
rfingers 7.12502
rthumb 1.85161 -53.5596
lclavicle -1.49089e-014 -7.23576e-014
lhumerus -12.9877 -17.3141 97.0667
lradius 64.6253
lwrist -12.1193
lhand -17.2801 23.1425
lfingers 7.12502
lthumb 8.96504 52.932
rfemur -25.5402 -4.37769 16.6866
rtibia 48.0192
rfoot -12.2216 -8.37857
rtoes -12.6746
lfemur -42.3389 1.77527 -13.6313
ltibia 42.8312
lfoot -3.92121 -10.6309
ltoes 0.680623
117
root 37.9774 17.0679 5.28167 47.2608 -82.1475 -37.781
lowerback 4.03206 1.13136 3.88657
upperback -0.692679 1.74644 3.94192
thorax -2.9847 0.804543 1.7741
lowerneck -16.0694 0.789541 -6.17484
upperneck 6.03796 2.18079 1.12527
head 4.31584 0.974158 1.51328
rclavicle 2.38542e-015 1.35174e-014
rhumerus -5.74553 31.7908 -75.7235
rradius 74.1131
rwrist 14.052
rhand -24.9229 -23.6995
rfingers 7.12502
rthumb 1.58605 -53.6733
lclavicle 2.38542e-015 1.35174e-014
lhumerus -12.4327 -17.6133 97.0113
lradius 64.55
lwrist -11.9243
lhand -17.1996 23.2266
lfingers 7.12502
lthumb 9.0427 53.0128
rfemur -25.8613 -4.47989 16.2664
rtibia 47.8596
rfoot -12.4433 -8.37618
rtoes -13.0053
lfemur -42.6033 2.31455 -13.7195
ltibia 43.9048
lfoot -4.22432 -11.0066
ltoes 0.119243
118
root 37.8685 17.0472 5.30123 45.184 -81.6158 -35.9479
lowerback 4.37142 1.04522 4.12813
upperback -0.592311 1.66029 4.07952
thorax -3.06938 0.755608 1.78237
lowerneck -16.007 0.797414 -6.15887
upperneck 5.88625 2.20018 0.915153
head 4.26092 0.972677 1.44486
rclavicle 1.17283e-014 2.38542e-014
rhumerus -5.31491 32.0145 -75.4945
rradius 73.895
rwrist 13.9547
rhand -25.1997 -23.8187
rfingers 7.12502
rthumb 1.31874 -53.7944
lclavicle 1.17283e-014 2.38542e-014
lhumerus -11.8741 -17.9001 96.9523
lradius 64.4586
lwrist -11.7124
lhand -17.0993 23.3241
lfingers 7.12502
lthumb 9.13952 53.106
rfemur -26.0881 -4.57799 15.8709
rtibia 47.6273
rfoot -12.7028 -8.40504
rtoes -13.3496
lfemur -42.8824 2.85101 -13.759
ltibia 44.9623
lfoot -4.54735 -11.3197
ltoes -0.499673
119
root 37.7598 17.025 5.32044 43.3476 -81.0569 -34.3663
lowerback 4.71192 0.9588 4.37611
upperback -0.489427 1.57564 4.21564
thorax -3.15209 0.707192 1.78645
lowerneck -15.943 0.798274 -6.14779
upperneck 5.73717 2.20966 0.714255
head 4.20684 0.966998 1.37942
rclavicle 3.4191e-014 -1.43125e-014
rhumerus -4.88335 32.2417 -75.2883
rradius 73.6573
rwrist 13.8522
rhand -25.4733 -23.9445
rfingers 7.12502
rthumb 1.05444 -53.9216
lclavicle 3.4191e-014 -1.43125e-014
lhumerus -11.312 -18.1741 96.8907
lradius 64.351
lwrist -11.4818
lhand -16.9772 23.4335
lfingers 7.12502
lthumb 9.25732 53.2102
rfemur -26.2202 -4.67225 15.5016
rtibia 47.3294
rfoot -12.9962 -8.46948
rtoes -13.7078
lfemur -43.1742 3.38009 -13.7502
ltibia 45.9924
lfoot -4.87655 -11.5645
ltoes -1.14845
120
root 37.6513 17.0015 5.33941 41.7208 -80.474 -33.0041
lowerback 5.05226 0.872682 4.6286
upperback -0.38503 1.49317 4.34926
thorax -3.23312 0.659686 1.78628
lowerneck -15.8782 0.791817 -6.14169
upperneck 5.59202 2.20898 0.522764
head 4.1541 0.95696 1.31706
rclavicle -3.97569e-016 4.6118e-014
rhumerus -4.45303 32.4728 -75.1067
rradius 73.4022
rwrist 13.7447
rhand -25.7457 -24.0775
rfingers 7.12502
rthumb 0.791326 -54.0557
lclavicle -3.97569e-016 4.6118e-014
lhumerus -10.7463 -18.4357 96.8284
lradius 64.2265
lwrist -11.2305
lhand -16.8358 23.5514
lfingers 7.12502
lthumb 9.39374 53.322
rfemur -26.2585 -4.76118 15.1608
rtibia 46.9751
rfoot -13.3233 -8.57437
rtoes -14.0614
lfemur -43.477 3.89878 -13.6939
ltibia 46.9851
lfoot -5.2089 -11.7295
ltoes -1.84778
121
root 37.5428 16.9767 5.35832 40.2808 -79.8706 -31.8366
lowerback 5.38989 0.78724 4.88471
upperback -0.279447 1.41319 4.47946
thorax -3.31139 0.613292 1.7814
lowerneck -15.8131 0.778529 -6.14095
upperneck 5.4515 2.1988 0.342501
head 4.10291 0.942975 1.25845
rclavicle -2.92213e-014 -2.3059e-014
rhumerus -4.02002 32.7097 -74.95
rradius 73.1302
rwrist 13.6306
rhand -26.0171 -24.2157
rfingers 7.12502
rthumb 0.52919 -54.1948
lclavicle -2.92213e-014 -2.3059e-014
lhumerus -10.1775 -18.6846 96.7661
lradius 64.086
lwrist -10.9599
lhand -16.6759 23.6767
lfingers 7.12502
lthumb 9.54805 53.4404
rfemur -26.2051 -4.84368 14.8509
rtibia 46.5732
rfoot -13.672 -8.72413
rtoes -14.4531
lfemur -43.7898 4.40554 -13.5919
ltibia 47.9307
lfoot -5.53933 -11.8127
ltoes -2.60995
122
root 37.4342 16.9509 5.37732 39.0066 -79.2495 -30.84
lowerback 5.72148 0.70285 5.14344
upperback -0.173297 1.33591 4.60542
thorax -3.38564 0.568176 1.77147
lowerneck -15.749 0.757882 -6.14534
upperneck 5.31529 2.1785 0.173623
head 4.05336 0.924728 1.20358
rclavicle 9.14409e-015 2.94201e-014
rhumerus -3.58555 32.9534 -74.8187
rradius 72.8443
rwrist 13.5122
rhand -26.2879 -24.355
rfingers 7.12502
rthumb 0.267651 -54.3346
lclavicle 9.14409e-015 2.94201e-014
lhumerus -9.60664 -18.9203 96.7044
lradius 63.9321
lwrist -10.6712
lhand -16.4944 23.8145
lfingers 7.12502
lthumb 9.7232 53.5701
rfemur -26.0655 -4.9201 14.5746
rtibia 46.1354
rfoot -14.0388 -8.9199
rtoes -14.8797
lfemur -44.112 4.89804 -13.4444
ltibia 48.8214
lfoot -5.86584 -11.8122
ltoes -3.41478
123
root 37.3255 16.9242 5.39667 37.8807 -78.6138 -29.9945
lowerback 6.04524 0.620249 5.40423
upperback -0.0675289 1.26216 4.72642
thorax -3.45583 0.524781 1.75593
lowerneck -15.6867 0.729697 -6.1555
upperneck 5.18436 2.14809 0.0164756
head 4.00584 0.902182 1.15265
rclavicle 2.3059e-014 2.3059e-014
rhumerus -3.15026 33.2054 -74.7138
rradius 72.5477
rwrist 13.3895
rhand -26.5567 -24.4956
rfingers 7.12502
rthumb 0.00808829 -54.4754
lclavicle 2.3059e-014 2.3059e-014
lhumerus -9.03443 -19.1421 96.6455
lradius 63.7648
lwrist -10.3653
lhand -16.295 23.9609
lfingers 7.12502
lthumb 9.91552 53.7074
rfemur -25.8438 -4.99223 14.3335
rtibia 45.6706
rfoot -14.42 -9.15923
rtoes -15.3531
lfemur -44.442 5.37276 -13.2525
ltibia 49.649
lfoot -6.18669 -11.7228
ltoes -4.26247
124
root 37.2165 16.8968 5.41652 36.8856 -77.9661 -29.2821
lowerback 6.36097 0.53976 5.66555
upperback 0.0376682 1.19221 4.84217
thorax -3.52207 0.483299 1.73524
lowerneck -15.6264 0.69461 -6.17046
upperneck 5.05894 2.10831 -0.129038
head 3.96043 0.875699 1.10554
rclavicle 8.34896e-015 -2.38542e-014
rhumerus -2.71271 33.4673 -74.6345
rradius 72.2415
rwrist 13.2639
rhand -26.8195 -24.6408
rfingers 7.12502
rthumb -0.24576 -54.6204
lclavicle 8.34896e-015 -2.38542e-014
lhumerus -8.46241 -19.3494 96.5908
lradius 63.5862
lwrist -10.0429
lhand -16.078 24.1176
lfingers 7.12502
lthumb 10.125 53.854
rfemur -25.5434 -5.06069 14.1294
rtibia 45.1879
rfoot -14.8084 -9.43481
rtoes -15.8738
lfemur -44.775 5.83022 -13.0171
ltibia 50.4031
lfoot -6.49792 -11.5477
ltoes -5.14836
